<svg id="Layer_1" data-name="Layer 1" xmlns="http://www.w3.org/2000/svg" xmlns:xlink="http://www.w3.org/1999/xlink" viewBox="0 0 188.84 141.73">
  <defs>
    <style>
      .cls-1 {
        fill: url(#linear-gradient);
      }

      .cls-2 {
        fill: #231f20;
      }
    </style>
    <linearGradient id="linear-gradient" x1="1.37" y1="65.62" x2="175.58" y2="65.62" gradientUnits="userSpaceOnUse">
      <stop offset="0" stop-color="#7200bc"/>
      <stop offset="0.21" stop-color="#8a17a8"/>
      <stop offset="0.49" stop-color="#a7348f"/>
      <stop offset="0.62" stop-color="#b1307c"/>
      <stop offset="0.87" stop-color="#c9274c"/>
      <stop offset="1" stop-color="#d8212f"/>
    </linearGradient>
  </defs>
  <g>
    <path class="cls-1" d="M32.69,91.75a2.5,2.5,0,1,1-2.5-2.5A2.49,2.49,0,0,1,32.69,91.75ZM175.58,45a6.35,6.35,0,0,1-3.83,5.83L99.07,82.28a6.35,6.35,0,0,1-4.4.23L59,71.43V96.9a6.36,6.36,0,0,1-12.71,0V66.3a6.36,6.36,0,0,1,3.93-5.87l4.82-2a6.33,6.33,0,0,1,4.31-.2L96.19,69.69l57-24.67L93.11,19l-63,28.35L37.35,50c1.31.48,4.88,1.62,4.88,1.62L89.88,30.23a3.9,3.9,0,0,1,3.2,7.12L37.84,62.18V79.86a3.84,3.84,0,0,1-.2,1.18L42,94.36a2.51,2.51,0,0,1,.1,1.12c-1.32,9-17,27.15-18.79,29.18a2.43,2.43,0,0,1-1.83.84,2.47,2.47,0,0,1-1.4-.44L2.42,112.72a2.44,2.44,0,0,1,.35-4.21c6.43-3.05,13.74-17,16-22.15a2.43,2.43,0,0,1,1-1.13L30,79.38V60.88l-19-6.9a6.35,6.35,0,0,1-.44-11.76L90.45,6.3a6.32,6.32,0,0,1,5.13,0l76.17,32.93A6.34,6.34,0,0,1,175.58,45ZM37.2,95.3,33.37,83.71a3.93,3.93,0,0,1-.75-.19l-9.71,5.56c-1.6,3.48-7.61,15.85-14.74,21.7l12.92,9C26.21,113.73,35.86,101.36,37.2,95.3Z" transform="translate(-1.37 -5.74)"/>
    <path class="cls-2" d="M92.56,125.21a148.21,148.21,0,0,1-41.87-5.8,6.35,6.35,0,0,1,3.9-12.09h0a137.74,137.74,0,0,0,38,5.19c11.41,0,23.74-1.65,33-4.42,10.79-3.22,13-6.65,13-7.19V77.45a6.35,6.35,0,0,1,3.95-5.88l38.91-16a6.35,6.35,0,1,1,4.82,11.76l-35,14.34v19.2C151.3,120.84,108.9,125.21,92.56,125.21ZM71.27,128.5A9.48,9.48,0,1,0,80.75,138,9.49,9.49,0,0,0,71.27,128.5Zm51.22,0A9.48,9.48,0,1,0,132,138,9.49,9.49,0,0,0,122.49,128.5Z" transform="translate(-1.37 -5.74)"/>
  </g>
</svg>
